<svg xmlns="http://www.w3.org/2000/svg" viewBox="0 0 14 14" fill="none" stroke="#000"><path d="M11 1.5h1.5a1 1 0 0 1 1 1v10a1 1 0 0 1-1 1h-8a1 1 0 0 1-1-1v-10a1 1 0 0 1 1-1H6"/><rect width="5" height="2.5" x="6" y=".5" rx="1"/><path d="M6 5.5h5M6 8h5m-5 2.5h5"/><path fill="#608585" d="M5.786 9.238 4.697 8.15a.24.24 90 0 0-.34 0L.15 12.12a.24.24 90 0 0-.005.344l1.32 1.326a.24.24 90 0 0 .345-.005l3.976-4.207a.24.24 90 0 0 0-.34m4.102-1.151-.878-.872a.43.43 90 0 0-.306-.125.44.44 90 0 0-.256.083l.002-.025c.01-.13.023-.326-.104-.504a5 5 90 0 0-.496-.575l-.001-.002A5.4 5.4 0 0 0 6.113 4.95a2.8 2.8 90 0 0-1.062-.209c-.631 0-1.111.285-1.295.454a1.07 1.07 90 0 0-.336.63l.32.196.277-.068a1.3 1.3 90 0 1 .37-.023c.263.022.575.153.713.262.234.188.347.442.365.822.004.084-.19.427-.483.797a.16.16 90 0 0 .012.212l.908.907a.16.16 90 0 0 .22.005c.241-.22.61-.56.693-.611a.75.75 0 0 1 .294-.116.4.4 90 0 1 .226.047.03.03 90 0 1-.006.02l-.037.034-.006.005a.43.43 90 0 0 .001.611l.88.874a.16.16 90 0 0 .225 0l1.493-1.484a.16.16 90 0 0 .002-.227" stroke="none"/></svg>